<?xml version="1.0" encoding="UTF-8"?> <svg xmlns="http://www.w3.org/2000/svg" width="182" height="9" viewBox="0 0 182 9" fill="none"><path d="M5.53515 1.74501C2.69359 3.68924 -0.222754 7.35336 0.525026 8.02636C0.749359 8.25069 2.02058 7.27858 3.21703 5.8578C4.48826 4.43702 6.58204 2.86668 7.92804 2.26846C10.0218 1.37112 10.3957 1.4459 11.0687 2.71713C14.4337 8.5498 18.0231 8.99847 22.7341 4.21268C26.9964 -0.124436 28.7163 -0.124436 31.6326 4.13791C35.222 9.37236 37.241 9.59669 42.9241 5.33435C45.0927 3.68924 47.5603 2.34324 48.3829 2.34324C49.2055 2.34324 51.1497 3.53968 52.72 4.96046C56.2346 8.10114 57.5058 8.17591 61.3195 5.48391C67.0026 1.37112 67.3017 1.29634 69.9189 3.83879C72.9101 6.68036 74.8543 6.68036 79.9392 3.76402C84.6502 1.07201 86.1458 1.22157 89.9594 4.58657C93.9227 8.10114 96.6147 8.25069 101.55 5.03524C106.71 1.74501 108.056 1.67023 109.701 4.58657C110.449 5.78302 111.57 6.90469 112.168 6.90469C112.767 6.97947 113.664 7.05425 114.187 7.2038C114.636 7.27858 116.805 6.38124 118.898 5.1848C123.61 2.64235 124.956 2.56757 127.648 4.88569C131.162 7.95158 133.63 8.02636 137.668 5.40913C141.93 2.56757 142.827 2.56757 146.118 5.1848C150.156 8.47503 150.903 8.5498 155.764 5.70824C160.924 2.71713 161.298 2.64235 163.915 4.43702C167.28 6.75513 168.401 6.82991 172.514 5.33435C174.683 4.5118 177.524 3.83879 178.87 3.83879C181.787 3.83879 182.235 1.89457 179.394 1.14679C177.375 0.623344 172.365 1.37112 171.168 2.34324C169.747 3.53968 167.429 3.31535 163.915 1.67023C162.045 0.847677 159.877 0.324232 159.054 0.548566C156.063 1.52068 152.848 3.16579 152.848 3.68924C152.848 4.96046 149.408 4.36224 146.492 2.64235C142.454 0.324232 140.21 0.39901 135.724 2.86668L132.059 4.96046L129.741 3.31535C128.545 2.34324 126.152 1.29634 124.507 0.922455C121.815 0.324232 121.067 0.473788 118.824 2.04412C114.561 4.88569 113.141 4.96046 110.748 2.34324C107.906 -0.647881 104.691 -0.647881 99.9797 2.34324C98.0354 3.53968 95.9417 4.58657 95.3434 4.58657C94.6704 4.58657 92.6514 3.53968 90.8568 2.34324C86.5944 -0.573103 82.033 -0.647881 77.6959 1.96935C73.957 4.28746 73.5083 4.28746 70.7415 1.96935C67.8999 -0.348769 65.5818 -0.423547 62.142 1.89457C56.6833 5.63346 56.6085 5.63346 53.4678 3.16579C49.5046 0.0251203 46.5882 0.0998982 41.8772 3.4649C39.8582 4.88569 37.5401 6.08213 36.8671 6.08213C36.1193 6.08213 34.3994 4.73613 33.1282 3.09102C30.9596 0.39901 30.3614 0.0998982 27.3703 0.0998982C24.6035 0.0998982 23.5566 0.548566 21.1637 2.71713C19.5186 4.13791 17.5744 5.33435 16.7518 5.33435C16.0041 5.33435 14.4337 4.13791 13.3121 2.71713C10.9939 -0.348769 9.04971 -0.573103 5.53515 1.74501Z" fill="#FFA4C2"></path></svg> 