<?xml version="1.0" encoding="UTF-8"?> <svg xmlns="http://www.w3.org/2000/svg" width="216" height="105" viewBox="0 0 216 105" fill="none"><path d="M87.3315 38.9982C87.3955 39.0622 87.4275 39.2222 87.4275 39.4782C87.4275 39.7342 87.2675 40.0222 86.9475 40.3422C86.6915 40.5982 86.3075 40.7902 85.7955 40.9182C85.3475 41.1102 84.7395 41.2702 83.9715 41.3982C82.7555 41.5902 81.4755 41.6862 80.1315 41.6862C79.1075 41.6862 78.2115 41.6222 77.4435 41.4942L74.1795 41.2062L71.2995 40.9182V43.1262C71.2995 44.5982 71.3315 45.5582 71.3955 46.0062C71.3955 48.2462 71.4275 49.6542 71.4915 50.2302C71.8115 54.7102 72.1315 57.8142 72.4515 59.5422L72.8355 60.9822L73.4115 62.5182C73.4755 62.9662 73.2835 63.1902 72.8355 63.1902L72.6435 63.0942L70.1475 62.7102C69.5715 62.5822 69.1555 62.2942 68.8995 61.8462C68.3875 61.0782 67.9395 60.1502 67.5555 59.0622C66.9795 57.5262 66.6915 55.9582 66.6915 54.3582L66.5955 50.9982V48.6942L66.7875 40.5342L62.6595 40.2462L60.2595 40.0542C55.2675 39.9262 52.7075 39.8622 52.5795 39.8622C50.2115 46.0062 48.5155 50.2302 47.4915 52.5342C46.6595 54.5182 45.3155 57.1102 43.4595 60.3102C42.4355 61.9102 41.1875 63.5742 39.7155 65.3022C38.6275 66.2622 37.8595 66.8702 37.4115 67.1262C36.4515 67.7022 35.4915 67.9902 34.5315 67.9902C34.0195 67.9902 33.6675 67.9582 33.4755 67.8942L30.8835 67.3182C28.8355 66.7422 27.8115 65.3662 27.8115 63.1902V62.6142C27.8115 61.9742 27.9075 61.4302 28.0995 60.9822C28.4835 60.2142 28.9955 59.9582 29.6355 60.2142L30.2115 60.4062C30.5315 60.4062 30.6595 60.5982 30.5955 60.9822C30.4675 61.3662 30.4035 61.8142 30.4035 62.3262C30.4035 62.9022 30.4995 63.5422 30.6915 64.2462C30.8835 64.9502 31.2355 65.5582 31.7475 66.0702C32.1315 66.5822 32.6435 66.7422 33.2835 66.5502C34.5635 66.1662 35.6195 65.5582 36.4515 64.7262C37.4755 63.7662 38.4035 62.7102 39.2355 61.5582C40.7075 59.5102 42.1155 56.9822 43.4595 53.9742L47.1075 45.5262L48.1635 42.7422L49.2195 39.9582C44.5475 40.1502 40.7395 40.7902 37.7955 41.8782C36.0035 42.6462 34.5635 43.3502 33.4755 43.9902C32.4515 44.8222 31.8435 45.3662 31.6515 45.6222L31.1715 46.4862C30.9155 46.8062 30.7875 47.1262 30.7875 47.4462C30.7875 47.7662 30.9155 48.0542 31.1715 48.3102C31.2355 48.3742 31.2675 48.4382 31.2675 48.5022C31.2675 48.5662 31.2355 48.5982 31.1715 48.5982H30.7875L29.6355 47.2542C29.2515 46.6782 29.0595 46.1022 29.0595 45.5262C29.0595 45.2062 29.1235 44.8542 29.2515 44.4702C29.5715 43.7022 30.0195 43.0302 30.5955 42.4542C31.1075 41.9422 32.1955 41.1102 33.8595 39.9582C35.8435 38.8062 38.7235 37.7822 42.4995 36.8862C44.9955 36.3742 47.7475 36.0222 50.7555 35.8302L51.0435 34.9662L54.0195 26.9022L57.2835 17.3982C58.0515 14.9022 59.0435 12.2782 60.2595 9.52623C61.5395 6.64623 62.4995 4.63023 63.1395 3.47823L64.3875 1.55823C64.7075 1.17423 65.0595 0.822233 65.4435 0.502234C66.0835 0.246233 66.5955 0.246233 66.9795 0.502234C68.8355 1.71823 69.8275 2.39023 69.9555 2.51823C70.5955 3.09423 71.0755 4.02223 71.3955 5.30223C71.7795 7.15823 71.9715 9.01423 71.9715 10.8702C71.9715 13.8782 71.8115 17.7822 71.4915 22.5822C71.3635 26.0382 71.2995 30.2302 71.2995 35.1582V37.0782C75.4595 37.5902 78.8835 37.7822 81.5715 37.6542L84.1635 37.5582C84.3555 37.5582 84.7715 37.4942 85.4115 37.3662L85.8915 37.2702C86.2115 37.1422 86.3715 37.1422 86.3715 37.2702C86.5635 37.4622 86.7555 37.7182 86.9475 38.0382C87.0115 38.1662 87.0755 38.3582 87.1395 38.6142C87.2675 38.8062 87.3315 38.9342 87.3315 38.9982ZM66.8835 36.5982V34.6782L67.3635 21.3342C67.7475 16.5982 67.9395 12.5982 67.9395 9.33423C67.9395 6.96623 67.8435 5.14223 67.6515 3.86223C67.6515 3.79823 67.5875 3.70223 67.4595 3.57423C67.3955 3.51023 67.3315 3.51023 67.2675 3.57423C67.2035 3.57423 67.1395 3.63823 67.0755 3.76623L66.7875 4.15023C66.4035 4.53423 65.8595 5.33423 65.1555 6.55023C64.0035 8.79023 63.0115 11.1262 62.1795 13.5582L61.3155 15.6702C60.4835 18.1662 59.4915 20.8862 58.3395 23.8302L57.4755 26.1342L54.4995 34.6782L54.1155 35.7342C55.9075 35.6702 57.7315 35.7342 59.5875 35.9262C60.3555 36.0542 62.7875 36.2782 66.8835 36.5982ZM88.2233 57.3342L85.4393 56.2782C85.0553 56.0862 84.8633 55.7982 84.8633 55.4142V51.9582C84.9273 51.4462 84.9593 50.3262 84.9593 48.5982V43.6062L84.8633 38.6142C84.8633 35.9262 84.9593 33.3022 85.1513 30.7422C85.1513 30.6782 85.2153 30.1342 85.3433 29.1102C85.4713 28.7262 85.6633 28.6622 85.9193 28.9182C86.1753 28.9822 86.7513 29.2382 87.6473 29.6862C87.9033 29.8142 88.0633 30.0382 88.1273 30.3582V30.7422C88.0633 31.7662 88.0633 33.2702 88.1273 35.2542C88.2553 37.1742 88.3193 38.1982 88.3193 38.3262C88.5113 41.6542 88.6713 43.8942 88.7993 45.0462C88.7993 45.3662 88.8633 45.5262 88.9913 45.5262C89.1193 45.6542 89.3113 45.5582 89.5673 45.2382L91.1033 43.7022C94.0473 40.0542 96.1913 37.1422 97.5353 34.9662C97.9833 34.1982 98.2713 33.3342 98.3993 32.3742C98.5913 31.2222 98.7513 30.3902 98.8793 29.8782L99.1673 29.0142C99.4233 28.4382 99.7113 28.1502 100.031 28.1502C100.223 28.1502 100.511 28.2462 100.895 28.4382L102.527 29.1102C103.231 29.5582 103.551 30.1342 103.487 30.8382C103.487 32.3102 103.391 33.7502 103.199 35.1582C103.007 37.1422 102.879 38.4862 102.815 39.1902L102.623 41.2062C102.495 44.0222 102.719 46.5822 103.295 48.8862C103.487 49.9742 103.807 50.8702 104.255 51.5742C104.319 51.8302 104.575 51.9262 105.023 51.8622C106.239 51.5422 107.231 50.9982 107.999 50.2302L109.343 48.8862C112.095 45.9422 114.335 43.2222 116.063 40.7262C116.383 40.2782 116.799 39.7982 117.311 39.2862C117.503 38.9662 117.791 38.9022 118.175 39.0942L118.751 39.3822C119.071 39.5102 119.231 39.6062 119.231 39.6702C119.231 39.7342 119.135 39.9262 118.943 40.2462L112.127 48.5982C110.463 50.7102 109.119 52.1182 108.095 52.8222C107.647 53.2702 107.327 53.5262 107.135 53.5902C106.687 53.8462 106.271 53.9742 105.887 53.9742C105.567 53.9742 105.279 53.9102 105.023 53.7822C103.103 52.9502 101.727 52.2782 100.895 51.7662C99.8713 51.1262 99.1673 50.1662 98.7833 48.8862C98.2713 47.0302 97.9513 45.2702 97.8233 43.6062C97.6953 42.0702 97.6313 41.1742 97.6313 40.9182L97.7273 39.0942V37.9422L97.6313 37.8462H97.4393L97.1513 38.1342L95.8073 39.9582L93.5993 43.1262C92.4473 44.6622 91.5193 45.7822 90.8153 46.4862L89.8553 47.4462C89.2153 48.0862 88.9593 48.8862 89.0873 49.8462C89.2153 50.9982 89.2793 51.6382 89.2793 51.7662C89.4073 54.3262 89.4713 55.7022 89.4713 55.8942V56.3742V56.7582C89.4713 57.2702 89.3113 57.5262 88.9913 57.5262L88.2233 57.3342ZM120.005 57.3342L117.221 56.2782C116.837 56.0862 116.645 55.7982 116.645 55.4142V51.9582C116.709 51.4462 116.741 50.3262 116.741 48.5982V43.6062L116.645 38.6142C116.645 35.9262 116.741 33.3022 116.933 30.7422C116.933 30.6782 116.997 30.1342 117.125 29.1102C117.253 28.7262 117.445 28.6622 117.701 28.9182C117.957 28.9822 118.533 29.2382 119.429 29.6862C119.685 29.8142 119.845 30.0382 119.909 30.3582V30.7422C119.845 31.7662 119.845 33.2702 119.909 35.2542C120.037 37.1742 120.101 38.1982 120.101 38.3262C120.293 41.6542 120.453 43.8942 120.581 45.0462C120.581 45.3662 120.645 45.5262 120.773 45.5262C120.901 45.6542 121.093 45.5582 121.349 45.2382L122.885 43.7022C125.829 40.0542 127.973 37.1422 129.317 34.9662C129.765 34.1982 130.053 33.3342 130.181 32.3742C130.373 31.2222 130.533 30.3902 130.661 29.8782L130.949 29.0142C131.205 28.4382 131.493 28.1502 131.813 28.1502C132.005 28.1502 132.293 28.2462 132.677 28.4382L134.309 29.1102C135.013 29.5582 135.333 30.1342 135.269 30.8382C135.269 32.3102 135.173 33.7502 134.981 35.1582C134.789 37.1422 134.661 38.4862 134.597 39.1902L134.405 41.2062C134.277 44.0222 134.501 46.5822 135.077 48.8862C135.269 49.9742 135.589 50.8702 136.037 51.5742C136.101 51.8302 136.357 51.9262 136.805 51.8622C138.021 51.5422 139.013 50.9982 139.781 50.2302L141.125 48.8862C143.877 45.9422 146.117 43.2222 147.845 40.7262C148.165 40.2782 148.581 39.7982 149.093 39.2862C149.285 38.9662 149.573 38.9022 149.957 39.0942L150.533 39.3822C150.853 39.5102 151.013 39.6062 151.013 39.6702C151.013 39.7342 150.917 39.9262 150.725 40.2462L143.909 48.5982C142.245 50.7102 140.901 52.1182 139.877 52.8222C139.429 53.2702 139.109 53.5262 138.917 53.5902C138.469 53.8462 138.053 53.9742 137.669 53.9742C137.349 53.9742 137.061 53.9102 136.805 53.7822C134.885 52.9502 133.509 52.2782 132.677 51.7662C131.653 51.1262 130.949 50.1662 130.565 48.8862C130.053 47.0302 129.733 45.2702 129.605 43.6062C129.477 42.0702 129.413 41.1742 129.413 40.9182L129.509 39.0942V37.9422L129.413 37.8462H129.221L128.933 38.1342L127.589 39.9582L125.381 43.1262C124.229 44.6622 123.301 45.7822 122.597 46.4862L121.637 47.4462C120.997 48.0862 120.741 48.8862 120.869 49.8462C120.997 50.9982 121.061 51.6382 121.061 51.7662C121.189 54.3262 121.253 55.7022 121.253 55.8942V56.3742V56.7582C121.253 57.2702 121.093 57.5262 120.773 57.5262L120.005 57.3342ZM174.826 58.1982L172.042 56.8542C171.658 56.5982 171.114 56.0862 170.41 55.3182C169.898 54.3582 169.514 53.5582 169.258 52.9182C168.362 49.8462 167.914 46.5822 167.914 43.1262C167.914 40.3742 167.946 38.6142 168.01 37.8462C168.074 37.0782 168.17 36.1502 168.298 35.0622C168.49 33.9102 168.586 33.2382 168.586 33.0462L168.682 31.5102L168.586 31.0302C168.138 31.4782 167.658 32.1502 167.146 33.0462C166.378 34.3262 165.354 36.3742 164.074 39.1902L160.138 48.4062C159.05 50.8382 157.738 53.1102 156.202 55.2222C156.01 55.5422 155.498 56.1182 154.666 56.9502C154.218 57.3982 153.674 57.6222 153.034 57.6222C152.586 57.6222 152.17 57.5262 151.786 57.3342C150.058 56.5022 149.002 55.9902 148.618 55.7982C147.466 55.2862 146.634 54.4542 146.122 53.3022C145.546 51.9582 145.258 50.5502 145.258 49.0782C145.258 48.0542 145.386 46.8062 145.642 45.3342C146.154 42.9022 146.794 40.9502 147.562 39.4782C149.418 35.8302 151.818 33.3982 154.762 32.1822C155.978 31.6702 157.002 31.4142 157.834 31.4142C158.922 31.4142 160.106 31.7662 161.386 32.4702L163.21 33.5262C163.594 33.7182 163.818 33.6862 163.882 33.4302L164.554 32.1822C165.45 30.4542 166.186 29.2702 166.762 28.6302L167.338 27.9582C167.658 27.6382 167.946 27.4782 168.202 27.4782C168.458 27.4782 168.714 27.5422 168.97 27.6702C169.098 27.7342 169.354 27.8942 169.738 28.1502C170.186 28.3422 170.57 28.5342 170.89 28.7262C171.338 28.9182 171.658 29.2702 171.85 29.7822C172.106 30.2942 172.234 30.9662 172.234 31.7982L172.33 33.6222C172.33 33.8142 172.266 34.6782 172.138 36.2142L171.946 41.1102C171.818 43.2862 171.754 44.5342 171.754 44.8542C171.754 48.1182 172.234 51.2222 173.194 54.1662C173.258 54.2942 173.322 54.4542 173.386 54.6462C173.45 54.9022 173.514 55.0622 173.578 55.1262C173.77 55.6382 173.994 55.8942 174.25 55.8942H174.346C174.41 55.8302 174.506 55.7662 174.634 55.7022C174.762 55.5742 174.89 55.4782 175.018 55.4142C175.914 54.6462 176.65 53.8462 177.226 53.0142C178.25 51.5422 179.242 49.7182 180.202 47.5422C180.394 47.0942 181.514 45.0782 183.562 41.4942C184.33 40.0222 184.81 39.1902 185.002 38.9982C185.194 38.8062 185.45 38.7742 185.77 38.9022L187.114 39.5742C187.434 39.7022 187.53 39.9262 187.402 40.2462L186.826 41.5902C185.354 44.7262 183.722 48.0862 181.93 51.6702C181.802 51.9902 181.194 53.0462 180.106 54.8382C179.914 55.2862 179.242 56.0862 178.09 57.2382C177.706 57.6222 177.29 57.9102 176.842 58.1022C176.458 58.2942 176.106 58.3902 175.786 58.3902C175.658 58.3902 175.338 58.3262 174.826 58.1982ZM151.882 54.0702L152.458 53.5902C153.866 52.4382 155.178 50.8382 156.394 48.7902C157.93 46.1662 159.146 43.8622 160.042 41.8782L162.826 35.7342C162.89 35.6702 162.922 35.4782 162.922 35.1582C162.922 34.5182 162.57 34.1022 161.866 33.9102C161.29 33.9102 160.906 33.9422 160.714 34.0062C159.306 34.1982 157.994 34.8062 156.778 35.8302C154.218 38.0062 152.554 40.8542 151.786 44.3742C151.53 45.3982 151.338 46.4222 151.21 47.4462C151.018 48.4702 150.922 49.4942 150.922 50.5182C150.922 51.7982 151.05 52.9182 151.306 53.8782C151.37 54.1342 151.562 54.1982 151.882 54.0702ZM41.4821 104.51L40.9062 101.726C40.7142 100.702 40.3942 98.3022 39.9462 94.5262V92.9902C39.9462 92.7982 39.8822 91.6782 39.7542 89.6302C39.5622 85.0222 39.4661 81.6302 39.4661 79.4542V74.9422V67.7422C39.4661 63.9022 39.4341 61.4382 39.3702 60.3502C39.3061 57.9822 39.0821 55.8702 38.6982 54.0142C38.6341 53.6942 38.5381 53.3102 38.4102 52.8622L38.3141 52.1902C38.1861 51.8062 37.9621 51.7742 37.6421 52.0942C37.0661 52.5422 36.5541 53.0542 36.1061 53.6302C34.5702 55.4862 33.0342 57.6622 31.4981 60.1582L26.7941 68.3182C26.5381 68.8302 26.0581 69.4382 25.3542 70.1422C24.7782 70.7822 24.0742 71.0062 23.2421 70.8142L21.5142 70.3342C20.6181 70.0142 19.9781 69.5662 19.5941 68.9902C19.2101 68.4142 18.8261 67.7102 18.4421 66.8782C17.7381 65.3422 17.3221 64.3182 17.1941 63.8062L16.6181 62.4622C16.5541 62.3342 16.4581 62.2702 16.3301 62.2702C16.2021 62.2062 16.1061 62.2382 16.0421 62.3662C15.3381 63.1342 14.7621 63.9982 14.3141 64.9582C13.4181 66.6222 12.6181 68.7342 11.9141 71.2942C10.7621 75.0062 9.80215 79.4862 9.03415 84.7342C8.13815 91.6462 7.53015 96.0622 7.21015 97.9822C7.01815 99.5182 6.89015 100.574 6.82615 101.15L6.63415 102.014C6.63415 102.27 6.47415 102.398 6.15415 102.398H5.57815C5.38615 102.398 4.52215 102.334 2.98615 102.206C2.73015 102.206 2.57015 102.078 2.50615 101.822C2.18615 101.566 1.86615 101.086 1.54615 100.382C0.970148 98.7182 0.650148 97.1502 0.586148 95.6782C0.202148 92.5422 0.0741484 88.9262 0.202148 84.8302V83.1022C0.202148 81.8222 0.330148 78.9422 0.586148 74.4622C0.586148 73.4382 0.682148 72.1582 0.874148 70.6222L1.25815 66.9742L1.45015 64.9582C1.51415 63.9982 1.64215 62.5902 1.83415 60.7342L2.50615 55.1662C2.63415 53.7582 2.98615 50.8462 3.56215 46.4302L4.04215 42.5902C4.10615 42.0142 4.26615 41.4382 4.52215 40.8622C4.77815 40.2862 5.09815 40.1262 5.48215 40.3822L5.86615 40.4782C6.76215 40.7342 7.24215 41.0222 7.30615 41.3422C7.30615 41.4062 7.33815 41.7902 7.40215 42.4942C7.53015 45.1822 7.59415 46.6862 7.59415 47.0062L7.49815 50.2702C7.37015 57.9502 7.30615 62.2702 7.30615 63.2302V67.9342C7.30615 71.1982 7.27415 73.3102 7.21015 74.2702C7.21015 75.2942 7.11415 76.2862 6.92215 77.2462C6.66615 79.2302 6.50615 81.6942 6.44215 84.6382L6.34615 86.5582C6.41015 86.3662 6.63415 85.3742 7.01815 83.5822L8.65015 74.7502C9.35415 71.3582 10.4421 67.9022 11.9141 64.3822C12.6181 62.8462 13.1621 61.8542 13.5461 61.4062C13.6101 61.3422 13.7061 61.2142 13.8341 61.0222C14.0261 60.8302 14.1861 60.6702 14.3141 60.5422C14.6981 60.1582 15.1141 60.0622 15.5621 60.2542L17.3861 60.7342C18.0901 60.8622 18.6021 61.2142 18.9221 61.7902L20.1701 64.0942C20.3621 64.6702 20.6501 65.4062 21.0341 66.3022C21.4181 67.1982 21.6421 67.7422 21.7061 67.9342C21.8341 68.2542 22.0901 68.6702 22.4741 69.1822C22.6021 69.3742 22.7621 69.3742 22.9542 69.1822C23.4022 68.8622 23.9142 68.3502 24.4902 67.6462L26.7941 63.9022C29.0341 59.9982 30.4421 57.6622 31.0181 56.8942L34.5701 51.9022L35.9141 50.4622C36.1701 50.0142 36.7142 49.8542 37.5462 49.9822C37.9302 50.1102 38.4422 50.2702 39.0822 50.4622C40.2982 50.7182 41.2262 51.5502 41.8661 52.9582C42.3141 53.8542 42.7302 55.4862 43.1142 57.8542C43.4342 59.9662 43.7222 63.1342 43.9782 67.3582C44.0422 68.1902 44.0742 70.1102 44.0742 73.1182C44.1382 73.6942 44.1702 74.9742 44.1702 76.9582C44.1702 77.2142 44.2342 78.5582 44.3621 80.9902C44.4901 84.5742 44.5541 86.5582 44.5541 86.9422V89.8222C44.5541 89.9502 44.6821 91.6462 44.9382 94.9102C45.0662 95.8702 45.1302 97.9182 45.1302 101.054V103.55C45.1302 104.318 44.7782 104.734 44.0742 104.798C43.9461 104.798 43.3061 104.862 42.1541 104.99C41.8341 104.99 41.6101 104.83 41.4821 104.51ZM78.4976 95.1982L75.7137 93.8542C75.3296 93.5982 74.7856 93.0862 74.0816 92.3182C73.5696 91.3582 73.1856 90.5582 72.9296 89.9182C72.0336 86.8462 71.5856 83.5822 71.5856 80.1262C71.5856 77.3742 71.6176 75.6142 71.6816 74.8462C71.7456 74.0782 71.8416 73.1502 71.9696 72.0622C72.1616 70.9102 72.2576 70.2382 72.2576 70.0462L72.3536 68.5102L72.2576 68.0302C71.8096 68.4782 71.3296 69.1502 70.8176 70.0462C70.0496 71.3262 69.0256 73.3742 67.7456 76.1902L63.8096 85.4062C62.7216 87.8382 61.4096 90.1102 59.8736 92.2222C59.6816 92.5422 59.1696 93.1182 58.3376 93.9502C57.8896 94.3982 57.3456 94.6222 56.7056 94.6222C56.2576 94.6222 55.8416 94.5262 55.4576 94.3342C53.7296 93.5022 52.6736 92.9902 52.2896 92.7982C51.1376 92.2862 50.3056 91.4542 49.7936 90.3022C49.2176 88.9582 48.9296 87.5502 48.9296 86.0782C48.9296 85.0542 49.0576 83.8062 49.3136 82.3342C49.8256 79.9022 50.4656 77.9502 51.2336 76.4782C53.0896 72.8302 55.4896 70.3982 58.4336 69.1822C59.6496 68.6702 60.6736 68.4142 61.5056 68.4142C62.5936 68.4142 63.7776 68.7662 65.0576 69.4702L66.8816 70.5262C67.2656 70.7182 67.4896 70.6862 67.5536 70.4302L68.2256 69.1822C69.1216 67.4542 69.8576 66.2702 70.4337 65.6302L71.0096 64.9582C71.3296 64.6382 71.6176 64.4782 71.8737 64.4782C72.1296 64.4782 72.3856 64.5422 72.6417 64.6702C72.7696 64.7342 73.0256 64.8942 73.4096 65.1502C73.8576 65.3422 74.2416 65.5342 74.5616 65.7262C75.0096 65.9182 75.3296 66.2702 75.5217 66.7822C75.7777 67.2942 75.9057 67.9662 75.9057 68.7982L76.0016 70.6222C76.0016 70.8142 75.9376 71.6782 75.8096 73.2142L75.6176 78.1102C75.4896 80.2862 75.4256 81.5342 75.4256 81.8542C75.4256 85.1182 75.9056 88.2222 76.8657 91.1662C76.9296 91.2942 76.9936 91.4542 77.0577 91.6462C77.1216 91.9022 77.1856 92.0622 77.2497 92.1262C77.4417 92.6382 77.6657 92.8942 77.9217 92.8942H78.0176C78.0816 92.8302 78.1776 92.7662 78.3056 92.7022C78.4336 92.5742 78.5616 92.4782 78.6896 92.4142C79.5856 91.6462 80.3216 90.8462 80.8976 90.0142C81.9216 88.5422 82.9136 86.7182 83.8736 84.5422C84.0656 84.0942 85.1857 82.0782 87.2337 78.4942C88.0017 77.0222 88.4817 76.1902 88.6736 75.9982C88.8656 75.8062 89.1216 75.7742 89.4417 75.9022L90.7857 76.5742C91.1057 76.7022 91.2017 76.9262 91.0737 77.2462L90.4976 78.5902C89.0256 81.7262 87.3936 85.0862 85.6016 88.6702C85.4736 88.9902 84.8656 90.0462 83.7776 91.8382C83.5857 92.2862 82.9137 93.0862 81.7617 94.2382C81.3776 94.6222 80.9616 94.9102 80.5136 95.1022C80.1297 95.2942 79.7777 95.3902 79.4577 95.3902C79.3297 95.3902 79.0097 95.3262 78.4976 95.1982ZM55.5536 91.0702L56.1296 90.5902C57.5376 89.4382 58.8496 87.8382 60.0656 85.7902C61.6016 83.1662 62.8176 80.8622 63.7136 78.8782L66.4976 72.7342C66.5616 72.6702 66.5936 72.4782 66.5936 72.1582C66.5936 71.5182 66.2416 71.1022 65.5376 70.9102C64.9616 70.9102 64.5776 70.9422 64.3856 71.0062C62.9776 71.1982 61.6656 71.8062 60.4496 72.8302C57.8896 75.0062 56.2256 77.8542 55.4576 81.3742C55.2016 82.3982 55.0096 83.4222 54.8816 84.4462C54.6896 85.4702 54.5936 86.4942 54.5936 87.5182C54.5936 88.7982 54.7216 89.9182 54.9776 90.8782C55.0416 91.1342 55.2336 91.1982 55.5536 91.0702ZM89.2406 100.094L87.2246 99.4222C86.7126 99.2302 86.4246 98.9422 86.3606 98.5582C86.3606 98.4942 86.3286 98.3662 86.2646 98.1742C86.2006 97.9822 86.1686 97.8222 86.1686 97.6942L86.0726 95.2942C86.0726 94.6542 86.1046 94.2382 86.1686 94.0462V93.7582C86.1046 92.4142 86.2966 90.0142 86.7446 86.5582C87.0646 83.3582 87.2886 81.3742 87.4166 80.6062C87.4806 79.5822 87.7366 77.0862 88.1846 73.1182L88.7606 68.0302C88.8886 67.3902 89.0486 66.1422 89.2406 64.2862C89.3686 63.5822 89.5286 63.2302 89.7206 63.2302C89.9126 63.2302 90.2326 63.3582 90.6806 63.6142C91.0006 63.7422 91.1606 63.9662 91.1606 64.2862C91.4166 64.8622 91.5766 65.7582 91.6406 66.9742C91.6406 73.3742 91.6086 76.9902 91.5446 77.8222C91.5446 78.1422 91.7046 78.2382 92.0246 78.1102C94.1366 76.8942 95.6726 75.8062 96.6326 74.8462C98.4886 73.1822 99.9926 71.5502 101.145 69.9502L101.433 69.6622C101.689 69.4062 101.945 69.3742 102.201 69.5662C102.521 69.7582 102.681 69.9822 102.681 70.2382L102.393 71.1982L102.105 72.0622C100.313 75.5822 97.7846 78.1742 94.5206 79.8382C94.3926 79.9662 93.9126 80.1902 93.0806 80.5102C92.5686 80.8302 92.3126 81.2782 92.3126 81.8542L92.6006 82.8142C93.5606 85.1822 95.0006 87.2942 96.9206 89.1502C97.2406 89.4062 97.5606 89.5342 97.8806 89.5342H98.6486C99.6086 89.5342 100.377 89.4062 100.953 89.1502C102.489 88.4462 103.833 87.4862 104.985 86.2702C106.137 85.0542 107.673 82.9422 109.593 79.9342L112.185 76.2862C112.441 75.8382 112.825 75.7422 113.337 75.9982L113.817 76.2862C113.945 76.4142 113.977 76.5742 113.913 76.7662L113.625 77.4382L112.569 79.1662L111.513 80.7982C108.761 84.7022 107.225 86.8782 106.905 87.3262C105.753 88.7342 104.601 89.7902 103.449 90.4942C102.297 91.0062 101.369 91.2622 100.665 91.2622C99.7686 91.2622 98.9046 91.0702 98.0726 90.6862C95.2566 89.4062 93.2086 87.7422 91.9286 85.6942C91.8646 85.5022 91.7686 85.4062 91.6406 85.4062C91.5126 85.2782 91.4166 85.2782 91.3526 85.4062L91.2566 85.7902C91.1926 87.2622 91.0646 90.2062 90.8726 94.6222C90.8086 96.4142 90.6486 97.8222 90.3926 98.8462L90.1046 99.6142C89.9126 99.9982 89.6246 100.158 89.2406 100.094ZM115.476 90.7822L113.652 90.1102C112.052 89.5342 110.932 88.4782 110.292 86.9422C109.396 85.0222 109.012 83.0062 109.14 80.8942C109.14 78.0142 109.492 75.3262 110.196 72.8302C111.028 69.6942 112.372 67.1022 114.228 65.0542C115.252 63.8382 116.212 62.9102 117.108 62.2702L118.164 61.5982C118.612 61.3422 119.156 61.3102 119.796 61.5022L121.62 62.2702C122.132 62.6542 122.164 62.9102 121.716 63.0382C120.82 63.9342 120.148 64.6702 119.7 65.2462C117.588 68.1902 116.116 71.1982 115.284 74.2702C114.9 75.9982 114.548 77.8222 114.228 79.7422C114.164 80.0622 114.132 80.8622 114.132 82.1422C114.004 84.1902 114.1 85.8222 114.42 87.0382C114.484 87.7422 114.676 88.4142 114.996 89.0542C115.06 89.5022 115.316 89.7262 115.764 89.7262C116.468 89.7262 117.364 89.4382 118.452 88.8622C119.476 88.2862 120.372 87.6142 121.14 86.8462C121.908 86.1422 123.444 84.3822 125.748 81.5662L129.492 76.6702C130.004 76.0942 130.324 75.8062 130.452 75.8062C130.644 75.8062 130.964 75.9022 131.412 76.0942L131.892 76.3822C132.02 76.4462 132.052 76.6062 131.988 76.8622L131.796 77.1502L130.452 78.8782C127.636 82.5902 125.524 85.1502 124.116 86.5582C123.412 87.3262 122.676 88.0622 121.908 88.7662C120.884 89.5982 119.7 90.2702 118.356 90.7822C117.46 90.9102 116.98 90.9742 116.916 90.9742C116.852 90.9742 116.372 90.9102 115.476 90.7822ZM152.575 93.6622L149.407 92.7982C148.703 92.6062 147.967 91.9342 147.199 90.7822C146.495 89.6302 146.015 88.3822 145.759 87.0382C145.567 86.2702 145.375 84.7662 145.183 82.5262C145.055 80.8622 144.991 78.8782 144.991 76.5742C144.991 76.3822 144.991 76.1582 144.991 75.9022C144.991 75.6462 144.991 75.3902 144.991 75.1342C144.991 74.8782 144.991 74.7182 144.991 74.6542C144.863 74.5262 144.735 74.5902 144.607 74.8462L144.031 76.0942C141.983 80.5742 139.743 84.5422 137.311 87.9982C136.415 89.1502 135.871 89.8222 135.679 90.0142C135.295 90.3982 134.815 90.4942 134.239 90.3022L132.223 89.7262C131.327 89.5342 130.687 88.9902 130.303 88.0942C129.791 86.7502 129.471 85.4382 129.343 84.1582L129.247 81.3742C129.247 81.1182 129.311 79.7742 129.439 77.3422C129.695 74.7822 129.983 72.9262 130.303 71.7742C130.559 71.0062 130.815 70.6222 131.071 70.6222C131.263 70.6222 131.615 70.7182 132.127 70.9102C132.639 71.1022 132.895 71.5182 132.895 72.1582C133.023 75.2302 133.087 76.9902 133.087 77.4382C133.215 79.4862 133.439 81.9502 133.759 84.8302C133.823 85.2142 133.951 86.0782 134.143 87.4222C134.143 87.5502 134.175 87.6462 134.239 87.7102C134.367 87.7102 134.463 87.6782 134.527 87.6142C135.167 87.2302 135.743 86.6222 136.255 85.7902C137.471 84.2542 138.623 82.4622 139.711 80.4142C141.311 77.4062 142.911 73.9182 144.511 69.9502L145.471 67.4542C145.791 66.7502 146.015 66.0782 146.143 65.4382C146.207 64.9262 146.431 64.2222 146.815 63.3262C146.879 63.0702 147.071 62.9742 147.391 63.0382L149.407 63.7102C149.855 63.9022 150.175 64.2222 150.367 64.6702C150.623 65.3742 150.687 66.3982 150.559 67.7422L150.175 73.4062C150.047 75.8382 149.983 78.5582 149.983 81.5662C149.983 82.9102 150.175 84.9262 150.559 87.6142C150.751 88.8942 151.103 90.1102 151.615 91.2622C151.807 91.7102 151.967 91.9342 152.095 91.9342C152.351 91.9342 152.607 91.8062 152.863 91.5502C153.823 90.9742 154.655 90.2062 155.359 89.2462C155.999 88.4142 157.183 86.6222 158.911 83.8702C160.511 81.3102 161.567 79.4542 162.079 78.3022C162.399 77.4702 162.783 76.8302 163.231 76.3822C163.551 76.0622 163.839 75.9342 164.095 75.9982C165.119 76.2542 165.727 76.4782 165.919 76.6702C165.407 77.6942 164.959 78.4622 164.575 78.9742C163.743 80.1262 162.911 81.4382 162.079 82.9102L159.295 87.7102C157.951 89.8862 156.863 91.3902 156.031 92.2222L154.879 93.1822C154.175 93.6942 153.407 93.8542 152.575 93.6622ZM166.261 93.8542C165.237 93.7262 164.597 93.1502 164.341 92.1262C163.957 91.1662 163.733 90.2062 163.669 89.2462L163.573 87.3262C163.445 85.1502 163.381 83.9022 163.381 83.5822C163.381 82.0462 163.541 80.0942 163.861 77.7262C164.053 77.0862 164.213 76.5742 164.341 76.1902C164.533 75.9342 164.757 75.8382 165.013 75.9022C165.717 75.9662 166.357 76.1902 166.933 76.5742C167.125 76.7022 167.221 76.8302 167.221 76.9582L167.125 77.6302C166.869 78.5902 166.741 79.8382 166.741 81.3742C166.741 81.5662 166.805 82.6222 166.933 84.5422C166.997 85.4382 167.093 86.4942 167.221 87.7102C167.413 88.9262 167.509 89.5982 167.509 89.7262C167.573 90.0462 167.701 90.3982 167.893 90.7822C167.893 90.8462 167.925 90.8782 167.989 90.8782C168.117 90.8782 168.213 90.8462 168.277 90.7822L168.853 89.7262C169.493 88.3822 169.973 87.0702 170.293 85.7902C170.997 83.5502 172.021 80.1582 173.365 75.6142C173.941 73.6302 174.645 71.8702 175.477 70.3342C175.541 70.0782 175.893 69.5342 176.533 68.7022C176.853 68.4462 177.141 68.3502 177.397 68.4142C178.229 68.6062 179.061 68.8942 179.893 69.2782C180.725 69.6622 181.365 70.4622 181.813 71.6782C182.005 72.2542 182.133 72.8622 182.197 73.5022C182.325 73.8222 182.453 74.3342 182.581 75.0382C182.709 75.6782 182.805 76.1262 182.869 76.3822L183.061 77.1502C183.189 77.2782 183.317 77.3102 183.445 77.2462C183.701 77.2462 183.925 77.1502 184.117 76.9582C184.693 76.5742 185.493 75.9982 186.517 75.2302C188.437 73.6302 189.813 72.5742 190.645 72.0622L191.221 71.7742C191.605 71.5182 191.989 71.4862 192.373 71.6782C193.333 71.9342 194.005 72.2542 194.389 72.6382C194.773 72.9582 195.125 73.6302 195.445 74.6542C195.637 75.1022 195.893 76.1262 196.213 77.7262L196.885 79.4542C197.269 80.0302 197.813 80.3182 198.517 80.3182H199.093C199.989 80.3182 200.821 80.2222 201.589 80.0302C204.853 79.2622 208.181 77.7582 211.573 75.5182L212.725 74.7502C213.109 74.6222 213.333 74.5582 213.397 74.5582C213.717 74.5582 214.005 74.6542 214.261 74.8462L214.837 75.2302C215.093 75.4222 215.125 75.6142 214.933 75.8062C214.613 76.0622 214.261 76.2862 213.877 76.4782C212.533 77.1182 211.349 77.7902 210.325 78.4942C208.533 79.6462 206.325 80.6382 203.701 81.4702C202.997 81.7262 202.101 81.8542 201.013 81.8542C199.989 81.8542 198.997 81.6622 198.037 81.2782L195.445 80.4142C193.781 79.7102 192.821 78.4942 192.565 76.7662C192.373 75.9982 192.277 75.1662 192.277 74.2702L192.181 73.5022C192.053 73.2462 191.925 73.1822 191.797 73.3102L190.837 73.8862C190.133 74.3982 189.205 75.2302 188.053 76.3822C187.221 77.3422 186.709 77.8862 186.517 78.0142L185.557 78.7822C185.109 79.0382 184.629 79.1662 184.117 79.1662C183.733 79.1662 183.477 79.1342 183.349 79.0702L180.469 77.9182C179.445 77.5342 178.677 76.7662 178.165 75.6142C177.717 74.3982 177.429 73.3742 177.301 72.5422C177.301 71.9022 177.173 71.4542 176.917 71.1982C176.725 71.3902 176.373 71.9982 175.861 73.0222C174.645 75.5182 173.813 77.9182 173.365 80.2222L171.061 89.2462C170.805 90.5902 170.453 91.7742 170.005 92.7982C169.685 93.8222 169.269 94.3342 168.757 94.3342L167.605 94.1422C166.837 93.9502 166.389 93.8542 166.261 93.8542Z" fill="#7F1023"></path></svg> 